<?xml version="1.0" standalone="no"?>
<!DOCTYPE svg PUBLIC "-//W3C//DTD SVG 20010904//EN"
 "http://www.w3.org/TR/2001/REC-SVG-20010904/DTD/svg10.dtd">
<svg version="1.0" xmlns="http://www.w3.org/2000/svg"
 width="1280.000000pt" height="905.000000pt" viewBox="0 0 1280.000000 905.000000"
 preserveAspectRatio="xMidYMid meet">
<g transform="translate(0.000000,905.000000) scale(0.100000,-0.100000)"
fill="#000000" stroke="none">
<path d="M8045 8814 c-168 -8 -471 -26 -735 -44 -157 -11 -384 -24 -505 -30
-567 -28 -942 -89 -2095 -344 -774 -171 -1067 -227 -1368 -261 -162 -19 -172
-16 -206 48 l-18 35 45 139 c61 185 63 209 18 254 -24 23 -38 29 -74 29 -76 0
-94 -23 -152 -200 -43 -132 -54 -154 -77 -166 -28 -14 -38 -47 -18 -59 6 -3
10 -13 10 -22 0 -8 -111 -356 -246 -772 -135 -416 -358 -1102 -496 -1526 -514
-1584 -466 -1443 -500 -1461 -24 -12 -29 -20 -23 -37 4 -12 9 -31 12 -43 4
-17 -238 -777 -567 -1779 -54 -165 -639 -1969 -706 -2177 -19 -58 -12 -97 23
-132 48 -49 130 -40 167 17 14 21 146 425 856 2612 462 1426 448 1385 476
1397 13 6 26 19 30 30 3 10 29 32 57 48 41 23 60 28 88 24 26 -4 78 7 200 44
774 237 1673 386 2779 461 562 38 1521 64 1535 42 3 -5 -52 -61 -122 -124
-168 -151 -249 -236 -273 -289 -39 -86 -22 -114 104 -174 148 -70 286 -98 559
-116 294 -19 599 0 1552 97 1145 116 1689 133 2212 70 166 -20 181 -20 193 8
5 12 19 99 30 192 71 575 229 1112 465 1585 130 261 203 373 391 601 44 54 61
83 58 96 -4 14 15 46 66 109 100 124 281 323 387 424 112 109 175 191 234 305
104 202 65 334 -125 424 -169 81 -357 106 -736 98 -481 -10 -937 -67 -1760
-223 -578 -109 -700 -126 -1030 -143 -111 -6 -179 -6 -185 0 -6 6 -5 21 4 42
85 209 125 363 141 538 5 63 15 137 21 166 10 45 10 55 -7 84 -44 74 -137 97
-419 103 -110 2 -231 2 -270 0z m-4871 -695 c32 -25 32 -44 11 -255 -116
-1118 -477 -2203 -1086 -3265 -43 -75 -81 -147 -84 -161 -8 -30 -103 -85 -129
-75 -10 4 -16 13 -13 20 4 12 118 363 657 2022 563 1735 559 1723 578 1728 32
9 39 7 66 -14z"/>
</g>
</svg>
